<svg height="368pt" viewBox="0 0 368.004 368" width="368pt" xmlns="http://www.w3.org/2000/svg"><path d="m365.65625 141.660156c3.128906-3.128906 3.128906-8.183594 0-11.3125l-128-128c-3.125-3.128906-8.183594-3.128906-11.308594 0l-224 224c-3.128906 3.128906-3.128906 8.183594 0 11.3125l114.34375 114.34375h-108.6875c-4.425781 0-7.99999975 3.585938-7.99999975 8 0 4.417969 3.57421875 8 7.99999975 8h352c4.421875 0 8-3.582031 8-8 0-4.414062-3.578125-8-8-8h-204.691406zm-165.652344 143.03125-84.691406-84.6875 148.691406-148.6875 84.6875 84.6875zm32-265.375 20.6875 20.6875-148.6875 148.6875-20.691406-20.6875zm-160 160 116.6875 116.6875-52.6875 52.6875-116.691406-116.6875zm0 0"/></svg>